<?xml version="1.0" encoding="UTF-8"?> <svg xmlns="http://www.w3.org/2000/svg" xmlns:xlink="http://www.w3.org/1999/xlink" width="201px" height="213px" viewBox="0 0 201 213"> <title>Logo</title> <g id="Page-1" stroke="none" stroke-width="1" fill="none" fill-rule="evenodd"> <g id="BB-1.2" transform="translate(-1194.000000, -196.000000)"> <g id="Logo" transform="translate(1172.000000, 172.000000)"> <g id="BB" transform="translate(1.500000, 1.500000)"> <g id="Logo" transform="translate(21.000000, 23.000000)"> <circle id="Bg" fill="#56AF40" cx="100" cy="106" r="100"></circle> <g id="Bear" transform="translate(27.000000, 0.000000)"> <path d="M145.517577,151.424762 C145.397455,150.944196 145.280102,150.474466 145.166134,150.018091 L144.94156,149.118546 C144.868351,148.825221 144.796852,148.538663 144.727253,148.259649 L144.590623,147.711824 C144.34498,146.726738 144.126492,145.849645 143.944356,145.118032 C143.542094,143.501826 143.361188,142.773363 143.361188,142.773363 C143.361188,142.773363 143.230867,142.248589 142.94617,141.102392 C142.603696,142.146068 142.402964,142.731683 142.402964,142.731683 C142.402964,142.731683 139.04983,152.514096 134.505321,162.73089 L134.107196,163.620174 L133.703382,164.510281 C133.500105,164.955314 133.294812,165.400143 133.087682,165.844 L132.671025,166.730192 L132.249783,167.612426 C130.838355,170.545097 129.355787,173.389056 127.854722,175.916657 C127.773198,170.905351 127.113079,166.511067 127.113079,166.511067 C127.113079,166.511067 127.058314,166.146504 126.94677,165.512607 C126.560613,165.925683 126.31998,166.175029 126.25955,166.237393 C126.214672,166.283707 126.069855,166.432598 125.834171,166.669573 L125.568532,166.935371 C123.567355,168.928618 117.530766,174.746269 110.283238,179.875029 C109.476502,180.44587 108.658686,181.025959 107.837081,181.610555 L106.603469,182.48972 L105.781109,183.07747 C105.370127,183.37156 104.959859,183.665688 104.55098,183.959431 L103.736493,184.545403 C98.407897,188.384618 93.4759303,192.05567 91.0655605,194.16319 C91.2036002,191.253896 90.1334908,188.609151 90.1334908,188.609151 C90.1334908,188.609151 90.1064633,188.542354 90.0524486,188.421996 L89.9746796,188.252705 C89.9293208,188.156052 89.8742523,188.042023 89.809483,187.913479 C89.4784516,188.265167 89.3004915,188.460618 89.3004915,188.460618 C89.1430988,188.633924 84.3457436,193.929877 79.9295108,200.459635 C77.6788507,203.785979 75.5420341,207.6313 74.15163,210.736621 C72.7614318,207.630776 70.6247586,203.785761 68.3743025,200.459718 C63.8856162,193.822831 59.0032655,188.460618 59.0032655,188.460618 C58.9618023,188.41523 58.7883848,188.225968 58.4939307,187.913379 C58.278344,188.341985 58.1702525,188.609185 58.1702525,188.609185 L58.1589671,188.637806 C58.044971,188.930816 57.1084272,191.430964 57.2379,194.163846 C54.7047574,191.948373 49.3874028,188.007552 43.7522883,183.959052 L42.9334315,183.371549 C42.7966412,183.273536 42.6597365,183.175504 42.5225197,183.07731 L41.6998887,182.489337 L40.4665888,181.610343 C39.6453464,181.025969 38.8275896,180.445881 38.0209129,179.875035 C30.7151632,174.705297 24.6400217,168.835528 22.6953624,166.895895 L22.485899,166.685597 C22.209335,166.407381 22.0956805,166.290535 22.0581224,166.251778 L21.3602246,165.531597 L21.2050773,166.52238 C21.1498903,166.874809 21.1203461,167.07651 21.0954536,167.259537 L21.0713341,167.441232 C21.0253169,167.794606 20.9707603,168.240819 20.9132957,168.762491 C20.8305063,169.514067 20.7416588,170.422476 20.6636104,171.435612 C20.5489941,172.92343 20.4577021,174.636927 20.4428877,176.413994 L20.449,175.92 L20.4299464,175.88726 C18.555467,172.726394 16.7101551,169.073737 14.9965819,165.372738 L14.5709926,164.446738 C9.63918789,153.637643 5.90079097,142.731678 5.90079097,142.731678 C5.90079097,142.731678 5.69984184,142.145452 5.35711509,141.10198 L5.357,141.102 L5.30932608,141.294786 C5.18535006,141.794932 5.08929327,142.182161 5.02663936,142.434654 L4.98599765,142.598421 C4.95749156,142.713272 4.94256897,142.773362 4.94256867,142.773363 C4.92953533,142.82584 4.86857723,143.071254 4.76602431,143.483713 L4.69158345,143.783067 C4.62456415,144.05254 4.54526914,144.37128 4.4551039,144.733556 C4.17726857,145.849631 3.95877904,146.72673 3.71313902,147.711805 L3.47070673,148.683722 L3.36221134,149.118491 L2.98277686,150.638035 C2.85970447,151.130667 2.73318497,151.636856 2.60231637,152.152828 C-6.16496929,89.266819 15.2842405,57.1272475 16.1573363,55.8528601 C16.1657466,55.8406851 16.287522,55.5806712 16.0256499,54.8331094 C15.4900659,53.3041864 13.9745728,49.0436332 14.0558625,47.4096029 C14.1208782,46.1026999 14.6509677,38.2890787 19.2169357,31.9242196 C21.6634915,28.5137745 25.2765508,25.5224886 30.6130292,24.1928055 C35.7594528,24.2524557 47.0984988,29.3197177 47.0984988,29.3197177 L48.2965711,29.3629293 C51.7407641,26.5541567 56.8299604,22.8518418 61.43845,21.3059169 C61.7310737,21.8094095 61.8333872,23.0208553 61.8333872,23.0208553 C61.8333872,23.0208553 61.873208,23.4923549 61.8538148,23.979368 C62.3651376,23.5872571 62.6598752,23.3261679 62.6598752,23.3261679 C62.80642,23.1951348 65.5739602,20.6972456 67.0639665,17.5715661 C69.5096071,17.9190684 72.5765351,18.9989383 75.3939687,20.2262554 C79.4279053,21.9835 83.0629313,24.0063786 83.2909885,24.609378 C83.3399155,24.7387447 83.3145245,25.0208783 83.2268512,25.4233232 C83.530653,25.2110171 83.8054129,25.0152937 84.0511771,24.8380063 C87.6186783,22.2645114 96.7999302,15.1187002 106.260518,1.47944054 C106.45495,4.38293733 106.753111,8.20474814 107.065213,12.0202156 L107.157283,13.1408597 C107.588057,18.3619057 108.028423,23.3999117 108.246001,25.8629602 C108.26345,26.0604971 108.282393,26.2745911 108.302929,26.5039651 C108.504982,26.4320715 108.706838,26.3611646 108.908053,26.2913049 C112.041808,25.2033011 115.454875,24.2184423 117.692527,24.1927171 C123.02798,25.5223736 126.640776,28.5133926 129.087174,31.9236175 C133.653107,38.2884282 134.183071,46.1023222 134.248087,47.4094066 C134.347641,49.4108693 132.063257,55.3509376 132.063257,55.3509376 C133.019316,57.12651 154.471299,89.2706906 145.699757,152.153423 L145.699,152.152 Z" id="Border" stroke="#FFFFFF" fill="#000000"></path> <path d="M145.831801,154.740086 C144.244174,148.40347 142.875928,142.893872 142.875928,142.893872 C142.875928,142.893872 135.220679,165.217576 127.357594,177.691282 C127.436494,172.030353 126.618626,166.585336 126.618626,166.585336 C126.618626,166.585336 119.512792,173.956207 110.572045,180.283184 C102.239408,186.179302 92.7242296,193.062444 90.4091805,195.460603 C91.051929,192.200726 89.6702123,188.797228 89.6702123,188.797228 C89.6702123,188.797228 84.811111,194.13429 80.3436244,200.739831 C77.8457577,204.431532 75.4883719,208.767111 74.1518785,212 C72.8153851,208.767111 70.4579993,204.431532 67.9601326,200.739831 C63.492646,194.13429 58.6335448,188.797228 58.6335448,188.797228 C58.6335448,188.797228 57.2521167,192.200726 57.8945765,195.460603 C55.579335,193.062444 46.06406,186.179302 37.7320965,180.283184 C28.7909653,173.956207 21.6851311,166.585336 21.6851311,166.585336 C21.6851311,166.585336 20.8672625,172.030353 20.9461628,177.691282 C13.0833671,165.217576 5.42782902,142.893872 5.42782902,142.893872 C5.42782902,142.893872 4.05958308,148.40347 2.47195593,154.740086 C-7.46668626,88.6278019 15.7733849,55.5289595 15.7733849,55.5289595 C15.7733849,55.5289595 13.454487,49.4349547 13.55648,47.3847596 C13.6584731,45.3345646 14.8951865,27.548761 30.5527503,23.6923316 C35.7293771,23.7116094 47.3018319,28.8629293 47.3018319,28.8629293 L48.1188345,28.8629293 C51.6789681,25.9719326 56.9079384,22.2111211 61.5896103,20.7305853 C62.0664758,21.0754653 62.3285786,22.9516782 62.3285786,22.9516782 C62.3285786,22.9516782 65.324864,20.3009793 66.7623882,17.0286676 C72.8896668,17.7323076 83.353573,23.361428 83.7586585,24.4325031 C87.410201,21.7983832 96.9715652,14.3469315 106.666675,0 C107.076571,6.74569114 108.324543,21.0698748 108.744061,25.8189632 C111.964539,24.7008502 115.4756,23.7005247 117.751199,23.6921388 C133.409052,27.5477008 134.645476,45.3340826 134.747469,47.3845668 C134.849462,49.4350511 132.530565,55.5287667 132.530565,55.5287667 C132.530565,55.5287667 155.770347,88.6278019 145.831801,154.740086 Z M140.629195,120.425585 C140.629195,120.425585 137.95717,111.552009 135.707551,108.816488 C140.461773,133.457384 131.363226,152.350602 131.363226,152.350602 C131.363226,152.350602 131.225631,146.846787 129.914155,142.19216 C129.123228,146.930645 127.246941,151.232489 125.00983,154.940575 C121.553614,148.874812 117.119805,145.486737 115.431147,145.094434 C107.33521,153.132317 93.0148135,164.27971 74.1518785,172.666521 C55.2885587,164.27971 40.968258,153.132317 32.8735726,145.094434 C31.1848184,145.486737 26.7505276,148.874812 23.2946963,154.940575 C21.0571042,151.232489 19.1805289,146.930645 18.3896982,142.19216 C17.0783182,146.846787 16.9413011,152.350602 16.9413011,152.350602 C16.9413011,152.350602 7.84265803,133.457384 12.5962062,108.816488 C10.3465866,111.552009 7.67485065,120.425585 7.67485065,120.425585 C7.67485065,120.425585 5.86466704,89.066372 22.1762371,57.5777087 C21.5099147,55.2632148 21.0023552,52.7389785 20.5880326,50.2489602 C22.5678517,36.5906321 24.7124955,33.2880541 33.0057786,31.217521 C37.4385298,32.2290277 43.9063304,34.4337343 48.3885386,37.8432078 C52.0578818,34.9997308 55.7383864,32.3153922 58.2037308,31.004694 C58.7739295,33.6367897 58.8050085,34.190352 60.9712055,33.3641051 C64.6790365,31.9497886 69.4448046,25.5750025 69.4448046,25.5750025 C69.4448046,25.5750025 75.0486473,27.3558866 81.6897398,32.11018 C82.0569709,32.34734 82.4059432,32.6117366 82.7337249,32.9011485 C88.3019663,29.9961754 96.4161844,24.9695829 101.308963,18.3234616 C101.899752,26.2825945 102.7436,32.2131235 103.535489,35.9425121 C107.628681,33.6002582 112.476236,32.0264179 116.021936,31.2171354 C124.315123,33.2876686 126.459863,36.5899574 128.440067,50.2485746 C127.972439,53.0614962 127.382611,55.9152868 126.5811,58.4629457 C142.404451,89.6514536 140.629195,120.425585 140.629195,120.425585 Z M55.3230054,132.034682 C55.9074446,137.17029 59.3775165,142.18734 61.2754526,143.732457 C63.6485222,145.664093 68.2032801,147.57838 72.7037701,147.933091 L72.7037701,144.46405 C70.6947001,143.484737 67.1201335,141.339117 65.4613037,137.83923 C64.2922328,135.371671 63.28866,132.307463 63.28866,130.583063 C63.28866,128.159842 69.5968319,124.778514 74.1518785,124.778514 C78.7069251,124.778514 85.015097,128.159842 85.015097,130.583063 C85.015097,132.307463 84.0115242,135.371671 82.8424533,137.83923 C81.1836235,141.339117 77.6090569,143.484737 75.5999869,144.46405 L75.5999869,147.933091 C80.1001882,147.57838 84.6552349,145.664093 87.0280158,143.732457 C88.926433,142.18734 92.39612,137.17029 92.9811365,132.034682 C93.3891086,128.449009 92.48368,124.400669 91.1327536,120.426549 C90.5275309,118.644315 82.4123507,103.753171 81.3933827,102.28613 C79.9067864,100.144365 74.1518785,100.109665 74.1518785,100.109665 C74.1518785,100.109665 68.3969706,100.144365 66.9103743,102.28613 C65.8914063,103.753171 57.7767072,118.644315 57.1709072,120.426549 C55.8203657,124.400669 54.9148409,128.449009 55.3230054,132.034682 Z M120.500007,75.4398523 C120.500007,75.4398523 109.303868,72.5375781 97.9172137,72.5375781 C91.8659487,72.5375781 85.0372276,74.0287167 80.5302909,74.773804 C76.2629415,75.4790827 74.1518785,75.4400451 74.1518785,75.4400451 C74.1518785,75.4400451 72.0408155,75.4786007 67.7734662,74.773804 C63.2665294,74.0289094 56.4379045,72.5375781 50.3865434,72.5375781 C38.999889,72.5375781 27.8037499,75.4398523 27.8037499,75.4398523 L27.8037499,80.0921661 C27.8037499,81.7172855 29.6552118,81.9982595 30.0217131,83.7929272 C33.0815036,98.7756409 35.5832191,103.736785 50.2093064,103.736785 C55.1742495,103.736785 60.1873025,103.320384 64.3336073,99.4657864 C67.7147721,96.3235035 69.0714716,90.3666603 70.8063151,87.1944967 C72.0148361,84.9837175 74.1518785,84.8721954 74.1518785,84.8721954 C74.1518785,84.8721954 76.2889209,84.9837175 77.4974419,87.1944967 C79.2322854,90.3666603 80.588985,96.3235035 83.9701497,99.4657864 C88.1162621,103.320384 93.1293151,103.736785 98.0942581,103.736785 C112.720634,103.736785 115.22235,98.7756409 118.28214,83.7929272 C118.648738,81.9982595 120.500007,81.7172855 120.500007,80.0921661 L120.500007,75.4398523 L120.500007,75.4398523 Z M98.2857356,101.56032 C94.167527,101.56032 89.935779,102.108774 85.7165396,97.5611388 C82.3719384,93.9542607 79.9452743,86.1804839 79.9452743,82.5970283 C79.9452743,76.7904557 86.8221054,74.7142356 98.2722648,74.7142356 C108.186756,74.7142356 115.431147,75.2347364 115.431147,83.2947886 C114.00998,91.2023533 114.929841,101.56032 98.2857356,101.56032 L98.2857356,101.56032 Z M62.5872175,97.5611388 C58.3684591,102.108774 54.13623,101.56032 50.017829,101.56032 C33.3737232,101.56032 34.2937772,91.2023533 32.8731877,83.2945958 C32.8731877,75.2344473 40.1172898,74.7140428 50.0316846,74.7140428 C61.4818441,74.7140428 68.3584827,76.7902629 68.3584827,82.5968355 C68.3584827,86.1804839 65.9318187,93.9542607 62.5872175,97.5611388 L62.5872175,97.5611388 Z M32.8735726,150.173173 C37.3144063,155.238417 43.7464131,162.644952 50.2540487,167.586818 C50.3695124,166.277855 52.4265961,166.136163 52.4265961,166.136163 C52.4265961,166.136163 66.7400652,174.172118 74.1518785,184.275618 C81.5636918,174.172118 95.8773533,166.136163 95.8773533,166.136163 C95.8773533,166.136163 97.9345332,166.277855 98.049997,167.586818 C104.557344,162.644952 110.989639,155.238417 115.431147,150.173173 C117.526814,151.763592 120.742481,153.426303 123.31155,157.56043 C118.336023,164.702858 112.533968,169.038437 112.533968,169.038437 C112.533968,169.038437 115.354171,164.259468 115.431147,158.15515 C110.057269,166.437861 94.4292449,181.373344 94.4292449,181.373344 C94.4292449,181.373344 93.9058091,177.777068 94.6216846,175.320112 C82.3209419,182.468323 74.1518785,197.33537 74.1518785,197.33537 C74.1518785,197.33537 65.9828152,182.468323 53.6817838,175.320112 C54.3976593,177.777068 53.8742234,181.373344 53.8742234,181.373344 C53.8742234,181.373344 38.2466802,166.437861 32.8735726,158.15515 C32.9505484,164.259468 35.7702705,169.038437 35.7702705,169.038437 C35.7702705,169.038437 29.9682149,164.702858 24.9924952,157.56043 C27.5616608,153.426303 30.7770388,151.763592 32.8735726,150.173173 Z" id="Border" fill="#FFFFFF"></path> </g> </g> </g> </g> </g> </g> </svg> 